M48
; DRILL file {KiCad 9.0.6} date 2026-04-01T15:21:01+0800
; FORMAT={-:-/ absolute / metric / decimal}
; #@! TF.CreationDate,2026-04-01T15:21:01+08:00
; #@! TF.GenerationSoftware,Kicad,Pcbnew,9.0.6
; #@! TF.FileFunction,Plated,1,2,PTH
FMAT,2
METRIC
; #@! TA.AperFunction,Plated,PTH,ComponentDrill
T1C0.800
%
G90
G05
T1
X132.461Y-55.601
X132.461Y-70.841
X135.001Y-55.601
X135.001Y-70.841
X137.541Y-55.601
X137.541Y-70.841
X140.081Y-55.601
X140.081Y-70.841
X142.621Y-55.601
X142.621Y-70.841
X145.161Y-55.601
X145.161Y-70.841
X147.701Y-55.601
X147.701Y-70.841
X150.241Y-55.601
X150.241Y-70.841
X152.781Y-55.601
X152.781Y-70.841
X155.321Y-55.601
X155.321Y-70.841
X157.861Y-55.601
X157.861Y-70.841
X160.401Y-55.601
X160.401Y-70.841
X165.176Y-59.741
X168.795Y-70.918
X171.295Y-70.918
X175.336Y-59.741
X180.795Y-57.418
X180.795Y-59.668
X180.795Y-61.918
X180.795Y-64.418
X180.795Y-66.918
X180.795Y-69.418
M30
