%TF.GenerationSoftware,KiCad,Pcbnew,9.0.6*%
%TF.CreationDate,2026-04-01T15:20:58+08:00*%
%TF.ProjectId,LIfeVest_Receiver,4c496665-5665-4737-945f-526563656976,rev?*%
%TF.SameCoordinates,Original*%
%TF.FileFunction,Legend,Top*%
%TF.FilePolarity,Positive*%
%FSLAX46Y46*%
G04 Gerber Fmt 4.6, Leading zero omitted, Abs format (unit mm)*
G04 Created by KiCad (PCBNEW 9.0.6) date 2026-04-01 15:20:58*
%MOMM*%
%LPD*%
G01*
G04 APERTURE LIST*
%ADD10C,0.150000*%
%ADD11C,0.100000*%
%ADD12C,0.200000*%
%ADD13C,0.120000*%
G04 APERTURE END LIST*
D10*
X169970485Y-56825619D02*
X169780009Y-56825619D01*
X169780009Y-56825619D02*
X169684771Y-56873238D01*
X169684771Y-56873238D02*
X169637152Y-56920857D01*
X169637152Y-56920857D02*
X169541914Y-57063714D01*
X169541914Y-57063714D02*
X169494295Y-57254190D01*
X169494295Y-57254190D02*
X169494295Y-57635142D01*
X169494295Y-57635142D02*
X169541914Y-57730380D01*
X169541914Y-57730380D02*
X169589533Y-57778000D01*
X169589533Y-57778000D02*
X169684771Y-57825619D01*
X169684771Y-57825619D02*
X169875247Y-57825619D01*
X169875247Y-57825619D02*
X169970485Y-57778000D01*
X169970485Y-57778000D02*
X170018104Y-57730380D01*
X170018104Y-57730380D02*
X170065723Y-57635142D01*
X170065723Y-57635142D02*
X170065723Y-57397047D01*
X170065723Y-57397047D02*
X170018104Y-57301809D01*
X170018104Y-57301809D02*
X169970485Y-57254190D01*
X169970485Y-57254190D02*
X169875247Y-57206571D01*
X169875247Y-57206571D02*
X169684771Y-57206571D01*
X169684771Y-57206571D02*
X169589533Y-57254190D01*
X169589533Y-57254190D02*
X169541914Y-57301809D01*
X169541914Y-57301809D02*
X169494295Y-57397047D01*
X170637152Y-57254190D02*
X170541914Y-57206571D01*
X170541914Y-57206571D02*
X170494295Y-57158952D01*
X170494295Y-57158952D02*
X170446676Y-57063714D01*
X170446676Y-57063714D02*
X170446676Y-57016095D01*
X170446676Y-57016095D02*
X170494295Y-56920857D01*
X170494295Y-56920857D02*
X170541914Y-56873238D01*
X170541914Y-56873238D02*
X170637152Y-56825619D01*
X170637152Y-56825619D02*
X170827628Y-56825619D01*
X170827628Y-56825619D02*
X170922866Y-56873238D01*
X170922866Y-56873238D02*
X170970485Y-56920857D01*
X170970485Y-56920857D02*
X171018104Y-57016095D01*
X171018104Y-57016095D02*
X171018104Y-57063714D01*
X171018104Y-57063714D02*
X170970485Y-57158952D01*
X170970485Y-57158952D02*
X170922866Y-57206571D01*
X170922866Y-57206571D02*
X170827628Y-57254190D01*
X170827628Y-57254190D02*
X170637152Y-57254190D01*
X170637152Y-57254190D02*
X170541914Y-57301809D01*
X170541914Y-57301809D02*
X170494295Y-57349428D01*
X170494295Y-57349428D02*
X170446676Y-57444666D01*
X170446676Y-57444666D02*
X170446676Y-57635142D01*
X170446676Y-57635142D02*
X170494295Y-57730380D01*
X170494295Y-57730380D02*
X170541914Y-57778000D01*
X170541914Y-57778000D02*
X170637152Y-57825619D01*
X170637152Y-57825619D02*
X170827628Y-57825619D01*
X170827628Y-57825619D02*
X170922866Y-57778000D01*
X170922866Y-57778000D02*
X170970485Y-57730380D01*
X170970485Y-57730380D02*
X171018104Y-57635142D01*
X171018104Y-57635142D02*
X171018104Y-57444666D01*
X171018104Y-57444666D02*
X170970485Y-57349428D01*
X170970485Y-57349428D02*
X170922866Y-57301809D01*
X170922866Y-57301809D02*
X170827628Y-57254190D01*
D11*
X187782695Y-73475619D02*
X187782695Y-74285142D01*
X187782695Y-74285142D02*
X187830314Y-74380380D01*
X187830314Y-74380380D02*
X187877933Y-74428000D01*
X187877933Y-74428000D02*
X187973171Y-74475619D01*
X187973171Y-74475619D02*
X188163647Y-74475619D01*
X188163647Y-74475619D02*
X188258885Y-74428000D01*
X188258885Y-74428000D02*
X188306504Y-74380380D01*
X188306504Y-74380380D02*
X188354123Y-74285142D01*
X188354123Y-74285142D02*
X188354123Y-73475619D01*
X188782695Y-73570857D02*
X188830314Y-73523238D01*
X188830314Y-73523238D02*
X188925552Y-73475619D01*
X188925552Y-73475619D02*
X189163647Y-73475619D01*
X189163647Y-73475619D02*
X189258885Y-73523238D01*
X189258885Y-73523238D02*
X189306504Y-73570857D01*
X189306504Y-73570857D02*
X189354123Y-73666095D01*
X189354123Y-73666095D02*
X189354123Y-73761333D01*
X189354123Y-73761333D02*
X189306504Y-73904190D01*
X189306504Y-73904190D02*
X188735076Y-74475619D01*
X188735076Y-74475619D02*
X189354123Y-74475619D01*
X175917019Y-70114315D02*
X174917019Y-70114315D01*
X174917019Y-70114315D02*
X175917019Y-69542887D01*
X175917019Y-69542887D02*
X174917019Y-69542887D01*
X175917019Y-68495268D02*
X175440828Y-68828601D01*
X175917019Y-69066696D02*
X174917019Y-69066696D01*
X174917019Y-69066696D02*
X174917019Y-68685744D01*
X174917019Y-68685744D02*
X174964638Y-68590506D01*
X174964638Y-68590506D02*
X175012257Y-68542887D01*
X175012257Y-68542887D02*
X175107495Y-68495268D01*
X175107495Y-68495268D02*
X175250352Y-68495268D01*
X175250352Y-68495268D02*
X175345590Y-68542887D01*
X175345590Y-68542887D02*
X175393209Y-68590506D01*
X175393209Y-68590506D02*
X175440828Y-68685744D01*
X175440828Y-68685744D02*
X175440828Y-69066696D01*
X175393209Y-67733363D02*
X175393209Y-68066696D01*
X175917019Y-68066696D02*
X174917019Y-68066696D01*
X174917019Y-68066696D02*
X174917019Y-67590506D01*
X175012257Y-67257172D02*
X174964638Y-67209553D01*
X174964638Y-67209553D02*
X174917019Y-67114315D01*
X174917019Y-67114315D02*
X174917019Y-66876220D01*
X174917019Y-66876220D02*
X174964638Y-66780982D01*
X174964638Y-66780982D02*
X175012257Y-66733363D01*
X175012257Y-66733363D02*
X175107495Y-66685744D01*
X175107495Y-66685744D02*
X175202733Y-66685744D01*
X175202733Y-66685744D02*
X175345590Y-66733363D01*
X175345590Y-66733363D02*
X175917019Y-67304791D01*
X175917019Y-67304791D02*
X175917019Y-66685744D01*
X175250352Y-65828601D02*
X175917019Y-65828601D01*
X174869400Y-66066696D02*
X175583685Y-66304791D01*
X175583685Y-66304791D02*
X175583685Y-65685744D01*
X175917019Y-64828601D02*
X175917019Y-65304791D01*
X175917019Y-65304791D02*
X174917019Y-65304791D01*
X174917019Y-64304791D02*
X174917019Y-64209553D01*
X174917019Y-64209553D02*
X174964638Y-64114315D01*
X174964638Y-64114315D02*
X175012257Y-64066696D01*
X175012257Y-64066696D02*
X175107495Y-64019077D01*
X175107495Y-64019077D02*
X175297971Y-63971458D01*
X175297971Y-63971458D02*
X175536066Y-63971458D01*
X175536066Y-63971458D02*
X175726542Y-64019077D01*
X175726542Y-64019077D02*
X175821780Y-64066696D01*
X175821780Y-64066696D02*
X175869400Y-64114315D01*
X175869400Y-64114315D02*
X175917019Y-64209553D01*
X175917019Y-64209553D02*
X175917019Y-64304791D01*
X175917019Y-64304791D02*
X175869400Y-64400029D01*
X175869400Y-64400029D02*
X175821780Y-64447648D01*
X175821780Y-64447648D02*
X175726542Y-64495267D01*
X175726542Y-64495267D02*
X175536066Y-64542886D01*
X175536066Y-64542886D02*
X175297971Y-64542886D01*
X175297971Y-64542886D02*
X175107495Y-64495267D01*
X175107495Y-64495267D02*
X175012257Y-64447648D01*
X175012257Y-64447648D02*
X174964638Y-64400029D01*
X174964638Y-64400029D02*
X174917019Y-64304791D01*
X175917019Y-63019077D02*
X175917019Y-63590505D01*
X175917019Y-63304791D02*
X174917019Y-63304791D01*
X174917019Y-63304791D02*
X175059876Y-63400029D01*
X175059876Y-63400029D02*
X175155114Y-63495267D01*
X175155114Y-63495267D02*
X175202733Y-63590505D01*
X175631304Y-61876219D02*
X175631304Y-61400029D01*
X175917019Y-61971457D02*
X174917019Y-61638124D01*
X174917019Y-61638124D02*
X175917019Y-61304791D01*
X175917019Y-60542886D02*
X174917019Y-60542886D01*
X175869400Y-60542886D02*
X175917019Y-60638124D01*
X175917019Y-60638124D02*
X175917019Y-60828600D01*
X175917019Y-60828600D02*
X175869400Y-60923838D01*
X175869400Y-60923838D02*
X175821780Y-60971457D01*
X175821780Y-60971457D02*
X175726542Y-61019076D01*
X175726542Y-61019076D02*
X175440828Y-61019076D01*
X175440828Y-61019076D02*
X175345590Y-60971457D01*
X175345590Y-60971457D02*
X175297971Y-60923838D01*
X175297971Y-60923838D02*
X175250352Y-60828600D01*
X175250352Y-60828600D02*
X175250352Y-60638124D01*
X175250352Y-60638124D02*
X175297971Y-60542886D01*
X175917019Y-59638124D02*
X175393209Y-59638124D01*
X175393209Y-59638124D02*
X175297971Y-59685743D01*
X175297971Y-59685743D02*
X175250352Y-59780981D01*
X175250352Y-59780981D02*
X175250352Y-59971457D01*
X175250352Y-59971457D02*
X175297971Y-60066695D01*
X175869400Y-59638124D02*
X175917019Y-59733362D01*
X175917019Y-59733362D02*
X175917019Y-59971457D01*
X175917019Y-59971457D02*
X175869400Y-60066695D01*
X175869400Y-60066695D02*
X175774161Y-60114314D01*
X175774161Y-60114314D02*
X175678923Y-60114314D01*
X175678923Y-60114314D02*
X175583685Y-60066695D01*
X175583685Y-60066695D02*
X175536066Y-59971457D01*
X175536066Y-59971457D02*
X175536066Y-59733362D01*
X175536066Y-59733362D02*
X175488447Y-59638124D01*
X175250352Y-59161933D02*
X176250352Y-59161933D01*
X175297971Y-59161933D02*
X175250352Y-59066695D01*
X175250352Y-59066695D02*
X175250352Y-58876219D01*
X175250352Y-58876219D02*
X175297971Y-58780981D01*
X175297971Y-58780981D02*
X175345590Y-58733362D01*
X175345590Y-58733362D02*
X175440828Y-58685743D01*
X175440828Y-58685743D02*
X175726542Y-58685743D01*
X175726542Y-58685743D02*
X175821780Y-58733362D01*
X175821780Y-58733362D02*
X175869400Y-58780981D01*
X175869400Y-58780981D02*
X175917019Y-58876219D01*
X175917019Y-58876219D02*
X175917019Y-59066695D01*
X175917019Y-59066695D02*
X175869400Y-59161933D01*
X175250352Y-58400028D02*
X175250352Y-58019076D01*
X174917019Y-58257171D02*
X175774161Y-58257171D01*
X175774161Y-58257171D02*
X175869400Y-58209552D01*
X175869400Y-58209552D02*
X175917019Y-58114314D01*
X175917019Y-58114314D02*
X175917019Y-58019076D01*
X175917019Y-57542885D02*
X175869400Y-57638123D01*
X175869400Y-57638123D02*
X175821780Y-57685742D01*
X175821780Y-57685742D02*
X175726542Y-57733361D01*
X175726542Y-57733361D02*
X175440828Y-57733361D01*
X175440828Y-57733361D02*
X175345590Y-57685742D01*
X175345590Y-57685742D02*
X175297971Y-57638123D01*
X175297971Y-57638123D02*
X175250352Y-57542885D01*
X175250352Y-57542885D02*
X175250352Y-57400028D01*
X175250352Y-57400028D02*
X175297971Y-57304790D01*
X175297971Y-57304790D02*
X175345590Y-57257171D01*
X175345590Y-57257171D02*
X175440828Y-57209552D01*
X175440828Y-57209552D02*
X175726542Y-57209552D01*
X175726542Y-57209552D02*
X175821780Y-57257171D01*
X175821780Y-57257171D02*
X175869400Y-57304790D01*
X175869400Y-57304790D02*
X175917019Y-57400028D01*
X175917019Y-57400028D02*
X175917019Y-57542885D01*
X175917019Y-56780980D02*
X175250352Y-56780980D01*
X175440828Y-56780980D02*
X175345590Y-56733361D01*
X175345590Y-56733361D02*
X175297971Y-56685742D01*
X175297971Y-56685742D02*
X175250352Y-56590504D01*
X175250352Y-56590504D02*
X175250352Y-56495266D01*
D12*
X145594123Y-59391441D02*
X145594123Y-59010488D01*
X145822695Y-59467631D02*
X145022695Y-59200964D01*
X145022695Y-59200964D02*
X145822695Y-58934298D01*
X145098885Y-58705727D02*
X145060790Y-58667631D01*
X145060790Y-58667631D02*
X145022695Y-58591441D01*
X145022695Y-58591441D02*
X145022695Y-58400965D01*
X145022695Y-58400965D02*
X145060790Y-58324774D01*
X145060790Y-58324774D02*
X145098885Y-58286679D01*
X145098885Y-58286679D02*
X145175076Y-58248584D01*
X145175076Y-58248584D02*
X145251266Y-58248584D01*
X145251266Y-58248584D02*
X145365552Y-58286679D01*
X145365552Y-58286679D02*
X145822695Y-58743822D01*
X145822695Y-58743822D02*
X145822695Y-58248584D01*
X149772695Y-68472393D02*
X149772695Y-68853345D01*
X149772695Y-68853345D02*
X150153647Y-68891441D01*
X150153647Y-68891441D02*
X150115552Y-68853345D01*
X150115552Y-68853345D02*
X150077457Y-68777155D01*
X150077457Y-68777155D02*
X150077457Y-68586679D01*
X150077457Y-68586679D02*
X150115552Y-68510488D01*
X150115552Y-68510488D02*
X150153647Y-68472393D01*
X150153647Y-68472393D02*
X150229838Y-68434298D01*
X150229838Y-68434298D02*
X150420314Y-68434298D01*
X150420314Y-68434298D02*
X150496504Y-68472393D01*
X150496504Y-68472393D02*
X150534600Y-68510488D01*
X150534600Y-68510488D02*
X150572695Y-68586679D01*
X150572695Y-68586679D02*
X150572695Y-68777155D01*
X150572695Y-68777155D02*
X150534600Y-68853345D01*
X150534600Y-68853345D02*
X150496504Y-68891441D01*
X139560790Y-68524698D02*
X139522695Y-68600888D01*
X139522695Y-68600888D02*
X139522695Y-68715174D01*
X139522695Y-68715174D02*
X139560790Y-68829460D01*
X139560790Y-68829460D02*
X139636980Y-68905650D01*
X139636980Y-68905650D02*
X139713171Y-68943745D01*
X139713171Y-68943745D02*
X139865552Y-68981841D01*
X139865552Y-68981841D02*
X139979838Y-68981841D01*
X139979838Y-68981841D02*
X140132219Y-68943745D01*
X140132219Y-68943745D02*
X140208409Y-68905650D01*
X140208409Y-68905650D02*
X140284600Y-68829460D01*
X140284600Y-68829460D02*
X140322695Y-68715174D01*
X140322695Y-68715174D02*
X140322695Y-68638983D01*
X140322695Y-68638983D02*
X140284600Y-68524698D01*
X140284600Y-68524698D02*
X140246504Y-68486602D01*
X140246504Y-68486602D02*
X139979838Y-68486602D01*
X139979838Y-68486602D02*
X139979838Y-68638983D01*
X140322695Y-68143745D02*
X139522695Y-68143745D01*
X139522695Y-68143745D02*
X140322695Y-67686602D01*
X140322695Y-67686602D02*
X139522695Y-67686602D01*
X140322695Y-67305650D02*
X139522695Y-67305650D01*
X139522695Y-67305650D02*
X139522695Y-67115174D01*
X139522695Y-67115174D02*
X139560790Y-67000888D01*
X139560790Y-67000888D02*
X139636980Y-66924698D01*
X139636980Y-66924698D02*
X139713171Y-66886603D01*
X139713171Y-66886603D02*
X139865552Y-66848507D01*
X139865552Y-66848507D02*
X139979838Y-66848507D01*
X139979838Y-66848507D02*
X140132219Y-66886603D01*
X140132219Y-66886603D02*
X140208409Y-66924698D01*
X140208409Y-66924698D02*
X140284600Y-67000888D01*
X140284600Y-67000888D02*
X140322695Y-67115174D01*
X140322695Y-67115174D02*
X140322695Y-67305650D01*
X160822695Y-58985098D02*
X160822695Y-59442241D01*
X160822695Y-59213669D02*
X160022695Y-59213669D01*
X160022695Y-59213669D02*
X160136980Y-59289860D01*
X160136980Y-59289860D02*
X160213171Y-59366050D01*
X160213171Y-59366050D02*
X160251266Y-59442241D01*
X160022695Y-58489859D02*
X160022695Y-58413669D01*
X160022695Y-58413669D02*
X160060790Y-58337478D01*
X160060790Y-58337478D02*
X160098885Y-58299383D01*
X160098885Y-58299383D02*
X160175076Y-58261288D01*
X160175076Y-58261288D02*
X160327457Y-58223193D01*
X160327457Y-58223193D02*
X160517933Y-58223193D01*
X160517933Y-58223193D02*
X160670314Y-58261288D01*
X160670314Y-58261288D02*
X160746504Y-58299383D01*
X160746504Y-58299383D02*
X160784600Y-58337478D01*
X160784600Y-58337478D02*
X160822695Y-58413669D01*
X160822695Y-58413669D02*
X160822695Y-58489859D01*
X160822695Y-58489859D02*
X160784600Y-58566050D01*
X160784600Y-58566050D02*
X160746504Y-58604145D01*
X160746504Y-58604145D02*
X160670314Y-58642240D01*
X160670314Y-58642240D02*
X160517933Y-58680336D01*
X160517933Y-58680336D02*
X160327457Y-58680336D01*
X160327457Y-58680336D02*
X160175076Y-58642240D01*
X160175076Y-58642240D02*
X160098885Y-58604145D01*
X160098885Y-58604145D02*
X160060790Y-58566050D01*
X160060790Y-58566050D02*
X160022695Y-58489859D01*
X147844123Y-59442241D02*
X147844123Y-59061288D01*
X148072695Y-59518431D02*
X147272695Y-59251764D01*
X147272695Y-59251764D02*
X148072695Y-58985098D01*
X148072695Y-58299384D02*
X148072695Y-58756527D01*
X148072695Y-58527955D02*
X147272695Y-58527955D01*
X147272695Y-58527955D02*
X147386980Y-58604146D01*
X147386980Y-58604146D02*
X147463171Y-58680336D01*
X147463171Y-58680336D02*
X147501266Y-58756527D01*
X150344123Y-59397041D02*
X150344123Y-59016088D01*
X150572695Y-59473231D02*
X149772695Y-59206564D01*
X149772695Y-59206564D02*
X150572695Y-58939898D01*
X149772695Y-58520850D02*
X149772695Y-58444660D01*
X149772695Y-58444660D02*
X149810790Y-58368469D01*
X149810790Y-58368469D02*
X149848885Y-58330374D01*
X149848885Y-58330374D02*
X149925076Y-58292279D01*
X149925076Y-58292279D02*
X150077457Y-58254184D01*
X150077457Y-58254184D02*
X150267933Y-58254184D01*
X150267933Y-58254184D02*
X150420314Y-58292279D01*
X150420314Y-58292279D02*
X150496504Y-58330374D01*
X150496504Y-58330374D02*
X150534600Y-58368469D01*
X150534600Y-58368469D02*
X150572695Y-58444660D01*
X150572695Y-58444660D02*
X150572695Y-58520850D01*
X150572695Y-58520850D02*
X150534600Y-58597041D01*
X150534600Y-58597041D02*
X150496504Y-58635136D01*
X150496504Y-58635136D02*
X150420314Y-58673231D01*
X150420314Y-58673231D02*
X150267933Y-58711327D01*
X150267933Y-58711327D02*
X150077457Y-58711327D01*
X150077457Y-58711327D02*
X149925076Y-58673231D01*
X149925076Y-58673231D02*
X149848885Y-58635136D01*
X149848885Y-58635136D02*
X149810790Y-58597041D01*
X149810790Y-58597041D02*
X149772695Y-58520850D01*
X132911495Y-58947002D02*
X132530542Y-59213669D01*
X132911495Y-59404145D02*
X132111495Y-59404145D01*
X132111495Y-59404145D02*
X132111495Y-59099383D01*
X132111495Y-59099383D02*
X132149590Y-59023193D01*
X132149590Y-59023193D02*
X132187685Y-58985098D01*
X132187685Y-58985098D02*
X132263876Y-58947002D01*
X132263876Y-58947002D02*
X132378161Y-58947002D01*
X132378161Y-58947002D02*
X132454352Y-58985098D01*
X132454352Y-58985098D02*
X132492447Y-59023193D01*
X132492447Y-59023193D02*
X132530542Y-59099383D01*
X132530542Y-59099383D02*
X132530542Y-59404145D01*
X132682923Y-58642241D02*
X132682923Y-58261288D01*
X132911495Y-58718431D02*
X132111495Y-58451764D01*
X132111495Y-58451764D02*
X132911495Y-58185098D01*
X132111495Y-57994622D02*
X132911495Y-57804146D01*
X132911495Y-57804146D02*
X132340066Y-57651765D01*
X132340066Y-57651765D02*
X132911495Y-57499384D01*
X132911495Y-57499384D02*
X132111495Y-57308908D01*
D11*
X139575265Y-63188304D02*
X140051455Y-63188304D01*
X139480027Y-63474019D02*
X139813360Y-62474019D01*
X139813360Y-62474019D02*
X140146693Y-63474019D01*
X140480027Y-63474019D02*
X140480027Y-62807352D01*
X140480027Y-62997828D02*
X140527646Y-62902590D01*
X140527646Y-62902590D02*
X140575265Y-62854971D01*
X140575265Y-62854971D02*
X140670503Y-62807352D01*
X140670503Y-62807352D02*
X140765741Y-62807352D01*
X141527646Y-63474019D02*
X141527646Y-62474019D01*
X141527646Y-63426400D02*
X141432408Y-63474019D01*
X141432408Y-63474019D02*
X141241932Y-63474019D01*
X141241932Y-63474019D02*
X141146694Y-63426400D01*
X141146694Y-63426400D02*
X141099075Y-63378780D01*
X141099075Y-63378780D02*
X141051456Y-63283542D01*
X141051456Y-63283542D02*
X141051456Y-62997828D01*
X141051456Y-62997828D02*
X141099075Y-62902590D01*
X141099075Y-62902590D02*
X141146694Y-62854971D01*
X141146694Y-62854971D02*
X141241932Y-62807352D01*
X141241932Y-62807352D02*
X141432408Y-62807352D01*
X141432408Y-62807352D02*
X141527646Y-62854971D01*
X142432408Y-62807352D02*
X142432408Y-63474019D01*
X142003837Y-62807352D02*
X142003837Y-63331161D01*
X142003837Y-63331161D02*
X142051456Y-63426400D01*
X142051456Y-63426400D02*
X142146694Y-63474019D01*
X142146694Y-63474019D02*
X142289551Y-63474019D01*
X142289551Y-63474019D02*
X142384789Y-63426400D01*
X142384789Y-63426400D02*
X142432408Y-63378780D01*
X142908599Y-63474019D02*
X142908599Y-62807352D01*
X142908599Y-62474019D02*
X142860980Y-62521638D01*
X142860980Y-62521638D02*
X142908599Y-62569257D01*
X142908599Y-62569257D02*
X142956218Y-62521638D01*
X142956218Y-62521638D02*
X142908599Y-62474019D01*
X142908599Y-62474019D02*
X142908599Y-62569257D01*
X143384789Y-62807352D02*
X143384789Y-63474019D01*
X143384789Y-62902590D02*
X143432408Y-62854971D01*
X143432408Y-62854971D02*
X143527646Y-62807352D01*
X143527646Y-62807352D02*
X143670503Y-62807352D01*
X143670503Y-62807352D02*
X143765741Y-62854971D01*
X143765741Y-62854971D02*
X143813360Y-62950209D01*
X143813360Y-62950209D02*
X143813360Y-63474019D01*
X144432408Y-63474019D02*
X144337170Y-63426400D01*
X144337170Y-63426400D02*
X144289551Y-63378780D01*
X144289551Y-63378780D02*
X144241932Y-63283542D01*
X144241932Y-63283542D02*
X144241932Y-62997828D01*
X144241932Y-62997828D02*
X144289551Y-62902590D01*
X144289551Y-62902590D02*
X144337170Y-62854971D01*
X144337170Y-62854971D02*
X144432408Y-62807352D01*
X144432408Y-62807352D02*
X144575265Y-62807352D01*
X144575265Y-62807352D02*
X144670503Y-62854971D01*
X144670503Y-62854971D02*
X144718122Y-62902590D01*
X144718122Y-62902590D02*
X144765741Y-62997828D01*
X144765741Y-62997828D02*
X144765741Y-63283542D01*
X144765741Y-63283542D02*
X144718122Y-63378780D01*
X144718122Y-63378780D02*
X144670503Y-63426400D01*
X144670503Y-63426400D02*
X144575265Y-63474019D01*
X144575265Y-63474019D02*
X144432408Y-63474019D01*
X145956218Y-63474019D02*
X145956218Y-62474019D01*
X145956218Y-62474019D02*
X146337170Y-62474019D01*
X146337170Y-62474019D02*
X146432408Y-62521638D01*
X146432408Y-62521638D02*
X146480027Y-62569257D01*
X146480027Y-62569257D02*
X146527646Y-62664495D01*
X146527646Y-62664495D02*
X146527646Y-62807352D01*
X146527646Y-62807352D02*
X146480027Y-62902590D01*
X146480027Y-62902590D02*
X146432408Y-62950209D01*
X146432408Y-62950209D02*
X146337170Y-62997828D01*
X146337170Y-62997828D02*
X145956218Y-62997828D01*
X146956218Y-63474019D02*
X146956218Y-62807352D01*
X146956218Y-62997828D02*
X147003837Y-62902590D01*
X147003837Y-62902590D02*
X147051456Y-62854971D01*
X147051456Y-62854971D02*
X147146694Y-62807352D01*
X147146694Y-62807352D02*
X147241932Y-62807352D01*
X147718123Y-63474019D02*
X147622885Y-63426400D01*
X147622885Y-63426400D02*
X147575266Y-63378780D01*
X147575266Y-63378780D02*
X147527647Y-63283542D01*
X147527647Y-63283542D02*
X147527647Y-62997828D01*
X147527647Y-62997828D02*
X147575266Y-62902590D01*
X147575266Y-62902590D02*
X147622885Y-62854971D01*
X147622885Y-62854971D02*
X147718123Y-62807352D01*
X147718123Y-62807352D02*
X147860980Y-62807352D01*
X147860980Y-62807352D02*
X147956218Y-62854971D01*
X147956218Y-62854971D02*
X148003837Y-62902590D01*
X148003837Y-62902590D02*
X148051456Y-62997828D01*
X148051456Y-62997828D02*
X148051456Y-63283542D01*
X148051456Y-63283542D02*
X148003837Y-63378780D01*
X148003837Y-63378780D02*
X147956218Y-63426400D01*
X147956218Y-63426400D02*
X147860980Y-63474019D01*
X147860980Y-63474019D02*
X147718123Y-63474019D01*
X149241933Y-63474019D02*
X149241933Y-62474019D01*
X149241933Y-62474019D02*
X149575266Y-63188304D01*
X149575266Y-63188304D02*
X149908599Y-62474019D01*
X149908599Y-62474019D02*
X149908599Y-63474019D01*
X150384790Y-63474019D02*
X150384790Y-62807352D01*
X150384790Y-62474019D02*
X150337171Y-62521638D01*
X150337171Y-62521638D02*
X150384790Y-62569257D01*
X150384790Y-62569257D02*
X150432409Y-62521638D01*
X150432409Y-62521638D02*
X150384790Y-62474019D01*
X150384790Y-62474019D02*
X150384790Y-62569257D01*
X151289551Y-63426400D02*
X151194313Y-63474019D01*
X151194313Y-63474019D02*
X151003837Y-63474019D01*
X151003837Y-63474019D02*
X150908599Y-63426400D01*
X150908599Y-63426400D02*
X150860980Y-63378780D01*
X150860980Y-63378780D02*
X150813361Y-63283542D01*
X150813361Y-63283542D02*
X150813361Y-62997828D01*
X150813361Y-62997828D02*
X150860980Y-62902590D01*
X150860980Y-62902590D02*
X150908599Y-62854971D01*
X150908599Y-62854971D02*
X151003837Y-62807352D01*
X151003837Y-62807352D02*
X151194313Y-62807352D01*
X151194313Y-62807352D02*
X151289551Y-62854971D01*
X151718123Y-63474019D02*
X151718123Y-62807352D01*
X151718123Y-62997828D02*
X151765742Y-62902590D01*
X151765742Y-62902590D02*
X151813361Y-62854971D01*
X151813361Y-62854971D02*
X151908599Y-62807352D01*
X151908599Y-62807352D02*
X152003837Y-62807352D01*
X152480028Y-63474019D02*
X152384790Y-63426400D01*
X152384790Y-63426400D02*
X152337171Y-63378780D01*
X152337171Y-63378780D02*
X152289552Y-63283542D01*
X152289552Y-63283542D02*
X152289552Y-62997828D01*
X152289552Y-62997828D02*
X152337171Y-62902590D01*
X152337171Y-62902590D02*
X152384790Y-62854971D01*
X152384790Y-62854971D02*
X152480028Y-62807352D01*
X152480028Y-62807352D02*
X152622885Y-62807352D01*
X152622885Y-62807352D02*
X152718123Y-62854971D01*
X152718123Y-62854971D02*
X152765742Y-62902590D01*
X152765742Y-62902590D02*
X152813361Y-62997828D01*
X152813361Y-62997828D02*
X152813361Y-63283542D01*
X152813361Y-63283542D02*
X152765742Y-63378780D01*
X152765742Y-63378780D02*
X152718123Y-63426400D01*
X152718123Y-63426400D02*
X152622885Y-63474019D01*
X152622885Y-63474019D02*
X152480028Y-63474019D01*
D12*
X134560790Y-58985098D02*
X134522695Y-59061288D01*
X134522695Y-59061288D02*
X134522695Y-59175574D01*
X134522695Y-59175574D02*
X134560790Y-59289860D01*
X134560790Y-59289860D02*
X134636980Y-59366050D01*
X134636980Y-59366050D02*
X134713171Y-59404145D01*
X134713171Y-59404145D02*
X134865552Y-59442241D01*
X134865552Y-59442241D02*
X134979838Y-59442241D01*
X134979838Y-59442241D02*
X135132219Y-59404145D01*
X135132219Y-59404145D02*
X135208409Y-59366050D01*
X135208409Y-59366050D02*
X135284600Y-59289860D01*
X135284600Y-59289860D02*
X135322695Y-59175574D01*
X135322695Y-59175574D02*
X135322695Y-59099383D01*
X135322695Y-59099383D02*
X135284600Y-58985098D01*
X135284600Y-58985098D02*
X135246504Y-58947002D01*
X135246504Y-58947002D02*
X134979838Y-58947002D01*
X134979838Y-58947002D02*
X134979838Y-59099383D01*
X135322695Y-58604145D02*
X134522695Y-58604145D01*
X134522695Y-58604145D02*
X135322695Y-58147002D01*
X135322695Y-58147002D02*
X134522695Y-58147002D01*
X135322695Y-57766050D02*
X134522695Y-57766050D01*
X134522695Y-57766050D02*
X134522695Y-57575574D01*
X134522695Y-57575574D02*
X134560790Y-57461288D01*
X134560790Y-57461288D02*
X134636980Y-57385098D01*
X134636980Y-57385098D02*
X134713171Y-57347003D01*
X134713171Y-57347003D02*
X134865552Y-57308907D01*
X134865552Y-57308907D02*
X134979838Y-57308907D01*
X134979838Y-57308907D02*
X135132219Y-57347003D01*
X135132219Y-57347003D02*
X135208409Y-57385098D01*
X135208409Y-57385098D02*
X135284600Y-57461288D01*
X135284600Y-57461288D02*
X135322695Y-57575574D01*
X135322695Y-57575574D02*
X135322695Y-57766050D01*
X137310790Y-68473898D02*
X137272695Y-68550088D01*
X137272695Y-68550088D02*
X137272695Y-68664374D01*
X137272695Y-68664374D02*
X137310790Y-68778660D01*
X137310790Y-68778660D02*
X137386980Y-68854850D01*
X137386980Y-68854850D02*
X137463171Y-68892945D01*
X137463171Y-68892945D02*
X137615552Y-68931041D01*
X137615552Y-68931041D02*
X137729838Y-68931041D01*
X137729838Y-68931041D02*
X137882219Y-68892945D01*
X137882219Y-68892945D02*
X137958409Y-68854850D01*
X137958409Y-68854850D02*
X138034600Y-68778660D01*
X138034600Y-68778660D02*
X138072695Y-68664374D01*
X138072695Y-68664374D02*
X138072695Y-68588183D01*
X138072695Y-68588183D02*
X138034600Y-68473898D01*
X138034600Y-68473898D02*
X137996504Y-68435802D01*
X137996504Y-68435802D02*
X137729838Y-68435802D01*
X137729838Y-68435802D02*
X137729838Y-68588183D01*
X138072695Y-68092945D02*
X137272695Y-68092945D01*
X137272695Y-68092945D02*
X138072695Y-67635802D01*
X138072695Y-67635802D02*
X137272695Y-67635802D01*
X138072695Y-67254850D02*
X137272695Y-67254850D01*
X137272695Y-67254850D02*
X137272695Y-67064374D01*
X137272695Y-67064374D02*
X137310790Y-66950088D01*
X137310790Y-66950088D02*
X137386980Y-66873898D01*
X137386980Y-66873898D02*
X137463171Y-66835803D01*
X137463171Y-66835803D02*
X137615552Y-66797707D01*
X137615552Y-66797707D02*
X137729838Y-66797707D01*
X137729838Y-66797707D02*
X137882219Y-66835803D01*
X137882219Y-66835803D02*
X137958409Y-66873898D01*
X137958409Y-66873898D02*
X138034600Y-66950088D01*
X138034600Y-66950088D02*
X138072695Y-67064374D01*
X138072695Y-67064374D02*
X138072695Y-67254850D01*
X142348885Y-68891441D02*
X142310790Y-68853345D01*
X142310790Y-68853345D02*
X142272695Y-68777155D01*
X142272695Y-68777155D02*
X142272695Y-68586679D01*
X142272695Y-68586679D02*
X142310790Y-68510488D01*
X142310790Y-68510488D02*
X142348885Y-68472393D01*
X142348885Y-68472393D02*
X142425076Y-68434298D01*
X142425076Y-68434298D02*
X142501266Y-68434298D01*
X142501266Y-68434298D02*
X142615552Y-68472393D01*
X142615552Y-68472393D02*
X143072695Y-68929536D01*
X143072695Y-68929536D02*
X143072695Y-68434298D01*
X157615552Y-68784260D02*
X157577457Y-68860450D01*
X157577457Y-68860450D02*
X157539361Y-68898545D01*
X157539361Y-68898545D02*
X157463171Y-68936641D01*
X157463171Y-68936641D02*
X157425076Y-68936641D01*
X157425076Y-68936641D02*
X157348885Y-68898545D01*
X157348885Y-68898545D02*
X157310790Y-68860450D01*
X157310790Y-68860450D02*
X157272695Y-68784260D01*
X157272695Y-68784260D02*
X157272695Y-68631879D01*
X157272695Y-68631879D02*
X157310790Y-68555688D01*
X157310790Y-68555688D02*
X157348885Y-68517593D01*
X157348885Y-68517593D02*
X157425076Y-68479498D01*
X157425076Y-68479498D02*
X157463171Y-68479498D01*
X157463171Y-68479498D02*
X157539361Y-68517593D01*
X157539361Y-68517593D02*
X157577457Y-68555688D01*
X157577457Y-68555688D02*
X157615552Y-68631879D01*
X157615552Y-68631879D02*
X157615552Y-68784260D01*
X157615552Y-68784260D02*
X157653647Y-68860450D01*
X157653647Y-68860450D02*
X157691742Y-68898545D01*
X157691742Y-68898545D02*
X157767933Y-68936641D01*
X157767933Y-68936641D02*
X157920314Y-68936641D01*
X157920314Y-68936641D02*
X157996504Y-68898545D01*
X157996504Y-68898545D02*
X158034600Y-68860450D01*
X158034600Y-68860450D02*
X158072695Y-68784260D01*
X158072695Y-68784260D02*
X158072695Y-68631879D01*
X158072695Y-68631879D02*
X158034600Y-68555688D01*
X158034600Y-68555688D02*
X157996504Y-68517593D01*
X157996504Y-68517593D02*
X157920314Y-68479498D01*
X157920314Y-68479498D02*
X157767933Y-68479498D01*
X157767933Y-68479498D02*
X157691742Y-68517593D01*
X157691742Y-68517593D02*
X157653647Y-68555688D01*
X157653647Y-68555688D02*
X157615552Y-68631879D01*
X153322695Y-58934298D02*
X153322695Y-59391441D01*
X153322695Y-59162869D02*
X152522695Y-59162869D01*
X152522695Y-59162869D02*
X152636980Y-59239060D01*
X152636980Y-59239060D02*
X152713171Y-59315250D01*
X152713171Y-59315250D02*
X152751266Y-59391441D01*
X152522695Y-58210488D02*
X152522695Y-58591440D01*
X152522695Y-58591440D02*
X152903647Y-58629536D01*
X152903647Y-58629536D02*
X152865552Y-58591440D01*
X152865552Y-58591440D02*
X152827457Y-58515250D01*
X152827457Y-58515250D02*
X152827457Y-58324774D01*
X152827457Y-58324774D02*
X152865552Y-58248583D01*
X152865552Y-58248583D02*
X152903647Y-58210488D01*
X152903647Y-58210488D02*
X152979838Y-58172393D01*
X152979838Y-58172393D02*
X153170314Y-58172393D01*
X153170314Y-58172393D02*
X153246504Y-58210488D01*
X153246504Y-58210488D02*
X153284600Y-58248583D01*
X153284600Y-58248583D02*
X153322695Y-58324774D01*
X153322695Y-58324774D02*
X153322695Y-58515250D01*
X153322695Y-58515250D02*
X153284600Y-58591440D01*
X153284600Y-58591440D02*
X153246504Y-58629536D01*
X132111495Y-69012831D02*
X132111495Y-68555688D01*
X132911495Y-68784260D02*
X132111495Y-68784260D01*
X132111495Y-68365212D02*
X132911495Y-67831878D01*
X132111495Y-67831878D02*
X132911495Y-68365212D01*
X132111495Y-67374735D02*
X132111495Y-67298545D01*
X132111495Y-67298545D02*
X132149590Y-67222354D01*
X132149590Y-67222354D02*
X132187685Y-67184259D01*
X132187685Y-67184259D02*
X132263876Y-67146164D01*
X132263876Y-67146164D02*
X132416257Y-67108069D01*
X132416257Y-67108069D02*
X132606733Y-67108069D01*
X132606733Y-67108069D02*
X132759114Y-67146164D01*
X132759114Y-67146164D02*
X132835304Y-67184259D01*
X132835304Y-67184259D02*
X132873400Y-67222354D01*
X132873400Y-67222354D02*
X132911495Y-67298545D01*
X132911495Y-67298545D02*
X132911495Y-67374735D01*
X132911495Y-67374735D02*
X132873400Y-67450926D01*
X132873400Y-67450926D02*
X132835304Y-67489021D01*
X132835304Y-67489021D02*
X132759114Y-67527116D01*
X132759114Y-67527116D02*
X132606733Y-67565212D01*
X132606733Y-67565212D02*
X132416257Y-67565212D01*
X132416257Y-67565212D02*
X132263876Y-67527116D01*
X132263876Y-67527116D02*
X132187685Y-67489021D01*
X132187685Y-67489021D02*
X132149590Y-67450926D01*
X132149590Y-67450926D02*
X132111495Y-67374735D01*
X158072695Y-58985098D02*
X158072695Y-59442241D01*
X158072695Y-59213669D02*
X157272695Y-59213669D01*
X157272695Y-59213669D02*
X157386980Y-59289860D01*
X157386980Y-59289860D02*
X157463171Y-59366050D01*
X157463171Y-59366050D02*
X157501266Y-59442241D01*
X157272695Y-58299383D02*
X157272695Y-58451764D01*
X157272695Y-58451764D02*
X157310790Y-58527955D01*
X157310790Y-58527955D02*
X157348885Y-58566050D01*
X157348885Y-58566050D02*
X157463171Y-58642240D01*
X157463171Y-58642240D02*
X157615552Y-58680336D01*
X157615552Y-58680336D02*
X157920314Y-58680336D01*
X157920314Y-58680336D02*
X157996504Y-58642240D01*
X157996504Y-58642240D02*
X158034600Y-58604145D01*
X158034600Y-58604145D02*
X158072695Y-58527955D01*
X158072695Y-58527955D02*
X158072695Y-58375574D01*
X158072695Y-58375574D02*
X158034600Y-58299383D01*
X158034600Y-58299383D02*
X157996504Y-58261288D01*
X157996504Y-58261288D02*
X157920314Y-58223193D01*
X157920314Y-58223193D02*
X157729838Y-58223193D01*
X157729838Y-58223193D02*
X157653647Y-58261288D01*
X157653647Y-58261288D02*
X157615552Y-58299383D01*
X157615552Y-58299383D02*
X157577457Y-58375574D01*
X157577457Y-58375574D02*
X157577457Y-58527955D01*
X157577457Y-58527955D02*
X157615552Y-58604145D01*
X157615552Y-58604145D02*
X157653647Y-58642240D01*
X157653647Y-58642240D02*
X157729838Y-58680336D01*
X135322695Y-68441402D02*
X134941742Y-68708069D01*
X135322695Y-68898545D02*
X134522695Y-68898545D01*
X134522695Y-68898545D02*
X134522695Y-68593783D01*
X134522695Y-68593783D02*
X134560790Y-68517593D01*
X134560790Y-68517593D02*
X134598885Y-68479498D01*
X134598885Y-68479498D02*
X134675076Y-68441402D01*
X134675076Y-68441402D02*
X134789361Y-68441402D01*
X134789361Y-68441402D02*
X134865552Y-68479498D01*
X134865552Y-68479498D02*
X134903647Y-68517593D01*
X134903647Y-68517593D02*
X134941742Y-68593783D01*
X134941742Y-68593783D02*
X134941742Y-68898545D01*
X134522695Y-68174736D02*
X135322695Y-67641402D01*
X134522695Y-67641402D02*
X135322695Y-68174736D01*
X135322695Y-66917593D02*
X135322695Y-67374736D01*
X135322695Y-67146164D02*
X134522695Y-67146164D01*
X134522695Y-67146164D02*
X134636980Y-67222355D01*
X134636980Y-67222355D02*
X134713171Y-67298545D01*
X134713171Y-67298545D02*
X134751266Y-67374736D01*
X154772695Y-68974736D02*
X154772695Y-68441402D01*
X154772695Y-68441402D02*
X155572695Y-68784260D01*
X152522695Y-68504888D02*
X152522695Y-68657269D01*
X152522695Y-68657269D02*
X152560790Y-68733460D01*
X152560790Y-68733460D02*
X152598885Y-68771555D01*
X152598885Y-68771555D02*
X152713171Y-68847745D01*
X152713171Y-68847745D02*
X152865552Y-68885841D01*
X152865552Y-68885841D02*
X153170314Y-68885841D01*
X153170314Y-68885841D02*
X153246504Y-68847745D01*
X153246504Y-68847745D02*
X153284600Y-68809650D01*
X153284600Y-68809650D02*
X153322695Y-68733460D01*
X153322695Y-68733460D02*
X153322695Y-68581079D01*
X153322695Y-68581079D02*
X153284600Y-68504888D01*
X153284600Y-68504888D02*
X153246504Y-68466793D01*
X153246504Y-68466793D02*
X153170314Y-68428698D01*
X153170314Y-68428698D02*
X152979838Y-68428698D01*
X152979838Y-68428698D02*
X152903647Y-68466793D01*
X152903647Y-68466793D02*
X152865552Y-68504888D01*
X152865552Y-68504888D02*
X152827457Y-68581079D01*
X152827457Y-68581079D02*
X152827457Y-68733460D01*
X152827457Y-68733460D02*
X152865552Y-68809650D01*
X152865552Y-68809650D02*
X152903647Y-68847745D01*
X152903647Y-68847745D02*
X152979838Y-68885841D01*
D11*
X162053419Y-66381001D02*
X162767704Y-66381001D01*
X162767704Y-66381001D02*
X162910561Y-66428620D01*
X162910561Y-66428620D02*
X163005800Y-66523858D01*
X163005800Y-66523858D02*
X163053419Y-66666715D01*
X163053419Y-66666715D02*
X163053419Y-66761953D01*
X162958180Y-65333382D02*
X163005800Y-65381001D01*
X163005800Y-65381001D02*
X163053419Y-65523858D01*
X163053419Y-65523858D02*
X163053419Y-65619096D01*
X163053419Y-65619096D02*
X163005800Y-65761953D01*
X163005800Y-65761953D02*
X162910561Y-65857191D01*
X162910561Y-65857191D02*
X162815323Y-65904810D01*
X162815323Y-65904810D02*
X162624847Y-65952429D01*
X162624847Y-65952429D02*
X162481990Y-65952429D01*
X162481990Y-65952429D02*
X162291514Y-65904810D01*
X162291514Y-65904810D02*
X162196276Y-65857191D01*
X162196276Y-65857191D02*
X162101038Y-65761953D01*
X162101038Y-65761953D02*
X162053419Y-65619096D01*
X162053419Y-65619096D02*
X162053419Y-65523858D01*
X162053419Y-65523858D02*
X162101038Y-65381001D01*
X162101038Y-65381001D02*
X162148657Y-65333382D01*
X162053419Y-64285762D02*
X162053419Y-63714334D01*
X163053419Y-64000048D02*
X162053419Y-64000048D01*
X163053419Y-62952429D02*
X162529609Y-62952429D01*
X162529609Y-62952429D02*
X162434371Y-63000048D01*
X162434371Y-63000048D02*
X162386752Y-63095286D01*
X162386752Y-63095286D02*
X162386752Y-63285762D01*
X162386752Y-63285762D02*
X162434371Y-63381000D01*
X163005800Y-62952429D02*
X163053419Y-63047667D01*
X163053419Y-63047667D02*
X163053419Y-63285762D01*
X163053419Y-63285762D02*
X163005800Y-63381000D01*
X163005800Y-63381000D02*
X162910561Y-63428619D01*
X162910561Y-63428619D02*
X162815323Y-63428619D01*
X162815323Y-63428619D02*
X162720085Y-63381000D01*
X162720085Y-63381000D02*
X162672466Y-63285762D01*
X162672466Y-63285762D02*
X162672466Y-63047667D01*
X162672466Y-63047667D02*
X162624847Y-62952429D01*
X163053419Y-62333381D02*
X163005800Y-62428619D01*
X163005800Y-62428619D02*
X162910561Y-62476238D01*
X162910561Y-62476238D02*
X162053419Y-62476238D01*
X163053419Y-61809571D02*
X163005800Y-61904809D01*
X163005800Y-61904809D02*
X162958180Y-61952428D01*
X162958180Y-61952428D02*
X162862942Y-62000047D01*
X162862942Y-62000047D02*
X162577228Y-62000047D01*
X162577228Y-62000047D02*
X162481990Y-61952428D01*
X162481990Y-61952428D02*
X162434371Y-61904809D01*
X162434371Y-61904809D02*
X162386752Y-61809571D01*
X162386752Y-61809571D02*
X162386752Y-61666714D01*
X162386752Y-61666714D02*
X162434371Y-61571476D01*
X162434371Y-61571476D02*
X162481990Y-61523857D01*
X162481990Y-61523857D02*
X162577228Y-61476238D01*
X162577228Y-61476238D02*
X162862942Y-61476238D01*
X162862942Y-61476238D02*
X162958180Y-61523857D01*
X162958180Y-61523857D02*
X163005800Y-61571476D01*
X163005800Y-61571476D02*
X163053419Y-61666714D01*
X163053419Y-61666714D02*
X163053419Y-61809571D01*
X163005800Y-61095285D02*
X163053419Y-61000047D01*
X163053419Y-61000047D02*
X163053419Y-60809571D01*
X163053419Y-60809571D02*
X163005800Y-60714333D01*
X163005800Y-60714333D02*
X162910561Y-60666714D01*
X162910561Y-60666714D02*
X162862942Y-60666714D01*
X162862942Y-60666714D02*
X162767704Y-60714333D01*
X162767704Y-60714333D02*
X162720085Y-60809571D01*
X162720085Y-60809571D02*
X162720085Y-60952428D01*
X162720085Y-60952428D02*
X162672466Y-61047666D01*
X162672466Y-61047666D02*
X162577228Y-61095285D01*
X162577228Y-61095285D02*
X162529609Y-61095285D01*
X162529609Y-61095285D02*
X162434371Y-61047666D01*
X162434371Y-61047666D02*
X162386752Y-60952428D01*
X162386752Y-60952428D02*
X162386752Y-60809571D01*
X162386752Y-60809571D02*
X162434371Y-60714333D01*
X163053419Y-60238142D02*
X162386752Y-60238142D01*
X162053419Y-60238142D02*
X162101038Y-60285761D01*
X162101038Y-60285761D02*
X162148657Y-60238142D01*
X162148657Y-60238142D02*
X162101038Y-60190523D01*
X162101038Y-60190523D02*
X162053419Y-60238142D01*
X162053419Y-60238142D02*
X162148657Y-60238142D01*
X162386752Y-59333381D02*
X163196276Y-59333381D01*
X163196276Y-59333381D02*
X163291514Y-59381000D01*
X163291514Y-59381000D02*
X163339133Y-59428619D01*
X163339133Y-59428619D02*
X163386752Y-59523857D01*
X163386752Y-59523857D02*
X163386752Y-59666714D01*
X163386752Y-59666714D02*
X163339133Y-59761952D01*
X163005800Y-59333381D02*
X163053419Y-59428619D01*
X163053419Y-59428619D02*
X163053419Y-59619095D01*
X163053419Y-59619095D02*
X163005800Y-59714333D01*
X163005800Y-59714333D02*
X162958180Y-59761952D01*
X162958180Y-59761952D02*
X162862942Y-59809571D01*
X162862942Y-59809571D02*
X162577228Y-59809571D01*
X162577228Y-59809571D02*
X162481990Y-59761952D01*
X162481990Y-59761952D02*
X162434371Y-59714333D01*
X162434371Y-59714333D02*
X162386752Y-59619095D01*
X162386752Y-59619095D02*
X162386752Y-59428619D01*
X162386752Y-59428619D02*
X162434371Y-59333381D01*
D12*
X142844123Y-59397041D02*
X142844123Y-59016088D01*
X143072695Y-59473231D02*
X142272695Y-59206564D01*
X142272695Y-59206564D02*
X143072695Y-58939898D01*
X142272695Y-58749422D02*
X142272695Y-58254184D01*
X142272695Y-58254184D02*
X142577457Y-58520850D01*
X142577457Y-58520850D02*
X142577457Y-58406565D01*
X142577457Y-58406565D02*
X142615552Y-58330374D01*
X142615552Y-58330374D02*
X142653647Y-58292279D01*
X142653647Y-58292279D02*
X142729838Y-58254184D01*
X142729838Y-58254184D02*
X142920314Y-58254184D01*
X142920314Y-58254184D02*
X142996504Y-58292279D01*
X142996504Y-58292279D02*
X143034600Y-58330374D01*
X143034600Y-58330374D02*
X143072695Y-58406565D01*
X143072695Y-58406565D02*
X143072695Y-58635136D01*
X143072695Y-58635136D02*
X143034600Y-58711327D01*
X143034600Y-58711327D02*
X142996504Y-58749422D01*
X155572695Y-58985098D02*
X155572695Y-59442241D01*
X155572695Y-59213669D02*
X154772695Y-59213669D01*
X154772695Y-59213669D02*
X154886980Y-59289860D01*
X154886980Y-59289860D02*
X154963171Y-59366050D01*
X154963171Y-59366050D02*
X155001266Y-59442241D01*
X155039361Y-58299383D02*
X155572695Y-58299383D01*
X154734600Y-58489859D02*
X155306028Y-58680336D01*
X155306028Y-58680336D02*
X155306028Y-58185097D01*
X147539361Y-68555688D02*
X148072695Y-68555688D01*
X147234600Y-68746164D02*
X147806028Y-68936641D01*
X147806028Y-68936641D02*
X147806028Y-68441402D01*
X145022695Y-68923936D02*
X145022695Y-68428698D01*
X145022695Y-68428698D02*
X145327457Y-68695364D01*
X145327457Y-68695364D02*
X145327457Y-68581079D01*
X145327457Y-68581079D02*
X145365552Y-68504888D01*
X145365552Y-68504888D02*
X145403647Y-68466793D01*
X145403647Y-68466793D02*
X145479838Y-68428698D01*
X145479838Y-68428698D02*
X145670314Y-68428698D01*
X145670314Y-68428698D02*
X145746504Y-68466793D01*
X145746504Y-68466793D02*
X145784600Y-68504888D01*
X145784600Y-68504888D02*
X145822695Y-68581079D01*
X145822695Y-68581079D02*
X145822695Y-68809650D01*
X145822695Y-68809650D02*
X145784600Y-68885841D01*
X145784600Y-68885841D02*
X145746504Y-68923936D01*
X139522695Y-59563631D02*
X140322695Y-59296964D01*
X140322695Y-59296964D02*
X139522695Y-59030298D01*
X140246504Y-58306488D02*
X140284600Y-58344584D01*
X140284600Y-58344584D02*
X140322695Y-58458869D01*
X140322695Y-58458869D02*
X140322695Y-58535060D01*
X140322695Y-58535060D02*
X140284600Y-58649346D01*
X140284600Y-58649346D02*
X140208409Y-58725536D01*
X140208409Y-58725536D02*
X140132219Y-58763631D01*
X140132219Y-58763631D02*
X139979838Y-58801727D01*
X139979838Y-58801727D02*
X139865552Y-58801727D01*
X139865552Y-58801727D02*
X139713171Y-58763631D01*
X139713171Y-58763631D02*
X139636980Y-58725536D01*
X139636980Y-58725536D02*
X139560790Y-58649346D01*
X139560790Y-58649346D02*
X139522695Y-58535060D01*
X139522695Y-58535060D02*
X139522695Y-58458869D01*
X139522695Y-58458869D02*
X139560790Y-58344584D01*
X139560790Y-58344584D02*
X139598885Y-58306488D01*
X140246504Y-57506488D02*
X140284600Y-57544584D01*
X140284600Y-57544584D02*
X140322695Y-57658869D01*
X140322695Y-57658869D02*
X140322695Y-57735060D01*
X140322695Y-57735060D02*
X140284600Y-57849346D01*
X140284600Y-57849346D02*
X140208409Y-57925536D01*
X140208409Y-57925536D02*
X140132219Y-57963631D01*
X140132219Y-57963631D02*
X139979838Y-58001727D01*
X139979838Y-58001727D02*
X139865552Y-58001727D01*
X139865552Y-58001727D02*
X139713171Y-57963631D01*
X139713171Y-57963631D02*
X139636980Y-57925536D01*
X139636980Y-57925536D02*
X139560790Y-57849346D01*
X139560790Y-57849346D02*
X139522695Y-57735060D01*
X139522695Y-57735060D02*
X139522695Y-57658869D01*
X139522695Y-57658869D02*
X139560790Y-57544584D01*
X139560790Y-57544584D02*
X139598885Y-57506488D01*
X160822695Y-68860450D02*
X160822695Y-68708069D01*
X160822695Y-68708069D02*
X160784600Y-68631879D01*
X160784600Y-68631879D02*
X160746504Y-68593783D01*
X160746504Y-68593783D02*
X160632219Y-68517593D01*
X160632219Y-68517593D02*
X160479838Y-68479498D01*
X160479838Y-68479498D02*
X160175076Y-68479498D01*
X160175076Y-68479498D02*
X160098885Y-68517593D01*
X160098885Y-68517593D02*
X160060790Y-68555688D01*
X160060790Y-68555688D02*
X160022695Y-68631879D01*
X160022695Y-68631879D02*
X160022695Y-68784260D01*
X160022695Y-68784260D02*
X160060790Y-68860450D01*
X160060790Y-68860450D02*
X160098885Y-68898545D01*
X160098885Y-68898545D02*
X160175076Y-68936641D01*
X160175076Y-68936641D02*
X160365552Y-68936641D01*
X160365552Y-68936641D02*
X160441742Y-68898545D01*
X160441742Y-68898545D02*
X160479838Y-68860450D01*
X160479838Y-68860450D02*
X160517933Y-68784260D01*
X160517933Y-68784260D02*
X160517933Y-68631879D01*
X160517933Y-68631879D02*
X160479838Y-68555688D01*
X160479838Y-68555688D02*
X160441742Y-68517593D01*
X160441742Y-68517593D02*
X160365552Y-68479498D01*
X138072695Y-58941402D02*
X137691742Y-59208069D01*
X138072695Y-59398545D02*
X137272695Y-59398545D01*
X137272695Y-59398545D02*
X137272695Y-59093783D01*
X137272695Y-59093783D02*
X137310790Y-59017593D01*
X137310790Y-59017593D02*
X137348885Y-58979498D01*
X137348885Y-58979498D02*
X137425076Y-58941402D01*
X137425076Y-58941402D02*
X137539361Y-58941402D01*
X137539361Y-58941402D02*
X137615552Y-58979498D01*
X137615552Y-58979498D02*
X137653647Y-59017593D01*
X137653647Y-59017593D02*
X137691742Y-59093783D01*
X137691742Y-59093783D02*
X137691742Y-59398545D01*
X138034600Y-58636641D02*
X138072695Y-58522355D01*
X138072695Y-58522355D02*
X138072695Y-58331879D01*
X138072695Y-58331879D02*
X138034600Y-58255688D01*
X138034600Y-58255688D02*
X137996504Y-58217593D01*
X137996504Y-58217593D02*
X137920314Y-58179498D01*
X137920314Y-58179498D02*
X137844123Y-58179498D01*
X137844123Y-58179498D02*
X137767933Y-58217593D01*
X137767933Y-58217593D02*
X137729838Y-58255688D01*
X137729838Y-58255688D02*
X137691742Y-58331879D01*
X137691742Y-58331879D02*
X137653647Y-58484260D01*
X137653647Y-58484260D02*
X137615552Y-58560450D01*
X137615552Y-58560450D02*
X137577457Y-58598545D01*
X137577457Y-58598545D02*
X137501266Y-58636641D01*
X137501266Y-58636641D02*
X137425076Y-58636641D01*
X137425076Y-58636641D02*
X137348885Y-58598545D01*
X137348885Y-58598545D02*
X137310790Y-58560450D01*
X137310790Y-58560450D02*
X137272695Y-58484260D01*
X137272695Y-58484260D02*
X137272695Y-58293783D01*
X137272695Y-58293783D02*
X137310790Y-58179498D01*
X137272695Y-57950926D02*
X137272695Y-57493783D01*
X138072695Y-57722355D02*
X137272695Y-57722355D01*
D13*
%TO.C,68*%
X166216200Y-59740800D02*
X166986200Y-59740800D01*
X166986200Y-58370800D02*
X166986200Y-61110800D01*
X166986200Y-61110800D02*
X173526200Y-61110800D01*
X173526200Y-58370800D02*
X166986200Y-58370800D01*
X173526200Y-61110800D02*
X173526200Y-58370800D01*
X174296200Y-59740800D02*
X173526200Y-59740800D01*
D11*
%TO.C,U2*%
X164544600Y-53918200D02*
X190544600Y-53918200D01*
X164544600Y-72918200D02*
X164544600Y-53918200D01*
X190544600Y-53918200D02*
X190544600Y-72918200D01*
X190544600Y-72918200D02*
X164544600Y-72918200D01*
X167544600Y-69418200D02*
X172544600Y-69418200D01*
X172544600Y-72418200D01*
X167544600Y-72418200D01*
X167544600Y-69418200D01*
X179294600Y-55918200D02*
X182294600Y-55918200D01*
X182294600Y-70918200D01*
X179294600Y-70918200D01*
X179294600Y-55918200D01*
X169501707Y-70918200D02*
G75*
G02*
X168087493Y-70918200I-707107J0D01*
G01*
X168087493Y-70918200D02*
G75*
G02*
X169501707Y-70918200I707107J0D01*
G01*
X172001707Y-70918200D02*
G75*
G02*
X170587493Y-70918200I-707107J0D01*
G01*
X170587493Y-70918200D02*
G75*
G02*
X172001707Y-70918200I707107J0D01*
G01*
X181501707Y-57418200D02*
G75*
G02*
X180087493Y-57418200I-707107J0D01*
G01*
X180087493Y-57418200D02*
G75*
G02*
X181501707Y-57418200I707107J0D01*
G01*
X181501707Y-59668200D02*
G75*
G02*
X180087493Y-59668200I-707107J0D01*
G01*
X180087493Y-59668200D02*
G75*
G02*
X181501707Y-59668200I707107J0D01*
G01*
X181501707Y-61918200D02*
G75*
G02*
X180087493Y-61918200I-707107J0D01*
G01*
X180087493Y-61918200D02*
G75*
G02*
X181501707Y-61918200I707107J0D01*
G01*
X181501707Y-64418200D02*
G75*
G02*
X180087493Y-64418200I-707107J0D01*
G01*
X180087493Y-64418200D02*
G75*
G02*
X181501707Y-64418200I707107J0D01*
G01*
X181501707Y-66918200D02*
G75*
G02*
X180087493Y-66918200I-707107J0D01*
G01*
X180087493Y-66918200D02*
G75*
G02*
X181501707Y-66918200I707107J0D01*
G01*
X181501707Y-69418200D02*
G75*
G02*
X180087493Y-69418200I-707107J0D01*
G01*
X180087493Y-69418200D02*
G75*
G02*
X181501707Y-69418200I707107J0D01*
G01*
%TO.C,U1*%
X126508600Y-54220600D02*
X163508600Y-54220600D01*
X163508600Y-72220600D01*
X126508600Y-72220600D01*
X126508600Y-54220600D01*
%TD*%
M02*
