%TF.GenerationSoftware,KiCad,Pcbnew,9.0.6*%
%TF.CreationDate,2026-04-01T15:20:38+08:00*%
%TF.ProjectId,LIfeVest_Receiver,4c496665-5665-4737-945f-526563656976,rev?*%
%TF.SameCoordinates,Original*%
%TF.FileFunction,Copper,L2,Bot*%
%TF.FilePolarity,Positive*%
%FSLAX46Y46*%
G04 Gerber Fmt 4.6, Leading zero omitted, Abs format (unit mm)*
G04 Created by KiCad (PCBNEW 9.0.6) date 2026-04-01 15:20:38*
%MOMM*%
%LPD*%
G01*
G04 APERTURE LIST*
%TA.AperFunction,ComponentPad*%
%ADD10O,2.200000X2.400000*%
%TD*%
%TA.AperFunction,ComponentPad*%
%ADD11O,2.540000X1.500000*%
%TD*%
%TA.AperFunction,ComponentPad*%
%ADD12O,1.500000X2.540000*%
%TD*%
%TA.AperFunction,ComponentPad*%
%ADD13R,2.400000X2.200000*%
%TD*%
%TA.AperFunction,Conductor*%
%ADD14C,1.000000*%
%TD*%
G04 APERTURE END LIST*
D10*
%TO.P,68,1*%
%TO.N,CSN*%
X165176200Y-59740800D03*
%TO.P,68,2*%
X175336200Y-59740800D03*
%TD*%
D11*
%TO.P,U2,1,CE*%
%TO.N,CE*%
X180794600Y-57418200D03*
%TO.P,U2,2,CSN*%
%TO.N,CSN*%
X180794600Y-59668200D03*
%TO.P,U2,3,CLK*%
%TO.N,CLK*%
X180794600Y-61918200D03*
%TO.P,U2,4,MOSI*%
%TO.N,MOSI*%
X180794600Y-64418200D03*
%TO.P,U2,5,MISO*%
%TO.N,MISO*%
X180794600Y-66918200D03*
%TO.P,U2,6,IRC*%
%TO.N,unconnected-(U2-IRC-Pad6)*%
X180794600Y-69418200D03*
D12*
%TO.P,U2,7,VCC*%
%TO.N,VCC*%
X168794600Y-70918200D03*
%TO.P,U2,8,GND*%
%TO.N,GND*%
X171294600Y-70918200D03*
%TD*%
D10*
%TO.P,U1,1,TX0*%
%TO.N,unconnected-(U1-TX0-Pad1)*%
X132461000Y-70840600D03*
%TO.P,U1,2,RX1*%
%TO.N,unconnected-(U1-RX1-Pad2)*%
X135001000Y-70840600D03*
D13*
%TO.P,U1,3,GND*%
%TO.N,GND*%
X137541000Y-70840600D03*
%TO.P,U1,4,GND*%
X140081000Y-70840600D03*
D10*
%TO.P,U1,5,2*%
%TO.N,unconnected-(U1-2-Pad5)*%
X142621000Y-70840600D03*
%TO.P,U1,6,3*%
%TO.N,unconnected-(U1-3-Pad6)*%
X145161000Y-70840600D03*
%TO.P,U1,7,4*%
%TO.N,unconnected-(U1-4-Pad7)*%
X147701000Y-70840600D03*
%TO.P,U1,8,5*%
%TO.N,unconnected-(U1-5-Pad8)*%
X150241000Y-70840600D03*
%TO.P,U1,9,6*%
%TO.N,unconnected-(U1-6-Pad9)*%
X152781000Y-70840600D03*
%TO.P,U1,10,7*%
%TO.N,unconnected-(U1-7-Pad10)*%
X155321000Y-70840600D03*
%TO.P,U1,11,9*%
%TO.N,N/C*%
X157861000Y-70840600D03*
%TO.P,U1,12,10*%
%TO.N,CE*%
X160401000Y-70840600D03*
%TO.P,U1,13,16*%
%TO.N,CSN*%
X160401000Y-55600600D03*
%TO.P,U1,14,14*%
%TO.N,MOSI*%
X157861000Y-55600600D03*
%TO.P,U1,15,15*%
%TO.N,MISO*%
X155321000Y-55600600D03*
%TO.P,U1,16,A0*%
%TO.N,CLK*%
X152781000Y-55600600D03*
%TO.P,U1,17,A1*%
%TO.N,unconnected-(U1-A1-Pad17)*%
X150241000Y-55600600D03*
%TO.P,U1,18,A2*%
%TO.N,unconnected-(U1-A2-Pad18)*%
X147701000Y-55600600D03*
%TO.P,U1,19,A3*%
%TO.N,unconnected-(U1-A3-Pad19)*%
X145161000Y-55600600D03*
%TO.P,U1,20,VCC*%
%TO.N,unconnected-(U1-RST-Pad21)*%
X142621000Y-55600600D03*
%TO.P,U1,21,RST*%
%TO.N,VCC*%
X140081000Y-55600600D03*
%TO.P,U1,22,GND*%
%TO.N,GND*%
X137541000Y-55600600D03*
D13*
%TO.P,U1,23,RAW*%
%TO.N,unconnected-(U1-RAW-Pad23)*%
X135001000Y-55600600D03*
D10*
%TO.P,U1,24*%
%TO.N,N/C*%
X132461000Y-55600600D03*
%TD*%
D14*
%TO.N,VCC*%
X145225000Y-59650000D02*
X142175000Y-59650000D01*
X145300000Y-59550000D02*
X145250000Y-59600000D01*
X140050000Y-57650000D02*
X140050000Y-55650000D01*
%TO.N,MISO*%
X155321000Y-55600600D02*
X155321000Y-56718200D01*
X165521000Y-66918200D02*
X180794600Y-66918200D01*
X155321000Y-56718200D02*
X165521000Y-66918200D01*
%TO.N,GND*%
X141528800Y-68122800D02*
X140081000Y-69570600D01*
X166395400Y-73025000D02*
X161493200Y-68122800D01*
X171294600Y-71834200D02*
X170103800Y-73025000D01*
X170103800Y-73025000D02*
X166395400Y-73025000D01*
X161493200Y-68122800D02*
X141528800Y-68122800D01*
X171294600Y-70918200D02*
X171294600Y-71834200D01*
X140081000Y-69570600D02*
X140081000Y-70840600D01*
%TO.N,CE*%
X183630800Y-57418200D02*
X180794600Y-57418200D01*
X160401000Y-70840600D02*
X164109400Y-74549000D01*
X185496200Y-71374000D02*
X185496200Y-59283600D01*
X182321200Y-74549000D02*
X185496200Y-71374000D01*
X164109400Y-74549000D02*
X182321200Y-74549000D01*
X185496200Y-59283600D02*
X183630800Y-57418200D01*
%TO.N,CLK*%
X170300000Y-61918200D02*
X180794600Y-61918200D01*
X152781000Y-55600600D02*
X152781000Y-54610000D01*
X161620200Y-53238400D02*
X170300000Y-61918200D01*
X154152600Y-53238400D02*
X161620200Y-53238400D01*
X152781000Y-54610000D02*
X154152600Y-53238400D01*
%TO.N,MOSI*%
X157861000Y-55707599D02*
X166571601Y-64418200D01*
X157861000Y-55600600D02*
X157861000Y-55707599D01*
X166571601Y-64418200D02*
X180794600Y-64418200D01*
%TO.N,CSN*%
X175408800Y-59668200D02*
X175336200Y-59740800D01*
X161036000Y-55600600D02*
X165176200Y-59740800D01*
X180794600Y-59668200D02*
X175408800Y-59668200D01*
X160401000Y-55600600D02*
X161036000Y-55600600D01*
%TO.N,VCC*%
X168794600Y-70918200D02*
X166941544Y-70918200D01*
X155637144Y-59613800D02*
X144634200Y-59613800D01*
X166941544Y-70918200D02*
X155637144Y-59613800D01*
X142106600Y-59606600D02*
X140093400Y-57593400D01*
%TD*%
M02*
