%TF.GenerationSoftware,KiCad,Pcbnew,9.0.0*%
%TF.CreationDate,2025-10-02T15:13:32+08:00*%
%TF.ProjectId,LifeVest,4c696665-5665-4737-942e-6b696361645f,rev?*%
%TF.SameCoordinates,Original*%
%TF.FileFunction,Copper,L2,Bot*%
%TF.FilePolarity,Positive*%
%FSLAX46Y46*%
G04 Gerber Fmt 4.6, Leading zero omitted, Abs format (unit mm)*
G04 Created by KiCad (PCBNEW 9.0.0) date 2025-10-02 15:13:32*
%MOMM*%
%LPD*%
G01*
G04 APERTURE LIST*
%TA.AperFunction,ComponentPad*%
%ADD10O,2.200000X3.000000*%
%TD*%
%TA.AperFunction,ComponentPad*%
%ADD11O,3.000000X2.200000*%
%TD*%
%TA.AperFunction,ComponentPad*%
%ADD12O,2.400000X2.200000*%
%TD*%
%TA.AperFunction,ComponentPad*%
%ADD13O,2.200000X2.400000*%
%TD*%
%TA.AperFunction,ComponentPad*%
%ADD14R,2.200000X3.000000*%
%TD*%
%TA.AperFunction,ComponentPad*%
%ADD15R,3.000000X3.000000*%
%TD*%
%TA.AperFunction,Conductor*%
%ADD16C,1.000000*%
%TD*%
G04 APERTURE END LIST*
D10*
%TO.P,68,1*%
%TO.N,GND*%
X133273800Y-80365600D03*
D11*
%TO.P,68,2*%
X148513800Y-80365600D03*
%TD*%
D12*
%TO.P,BJT,1*%
%TO.N,Net-(Q1-B)*%
X124440800Y-76794200D03*
%TO.P,BJT,2*%
%TO.N,GND*%
X124430800Y-79134200D03*
%TO.P,BJT,3*%
%TO.N,Net-(BZ1--)*%
X124410800Y-74414200D03*
%TD*%
D13*
%TO.P,D1,2,A*%
%TO.N,Net-(D1-A)*%
X112540000Y-66000000D03*
D14*
%TO.P,D1,1,K*%
%TO.N,Net-(D1-K)*%
X110000000Y-66000000D03*
%TD*%
D12*
%TO.P,BJT,1*%
%TO.N,Net-(Q2-B)*%
X110134400Y-74320400D03*
%TO.P,BJT,2*%
%TO.N,GND*%
X110124400Y-76660400D03*
%TO.P,BJT,3*%
%TO.N,Net-(D1-K)*%
X110104400Y-71940400D03*
%TD*%
D11*
%TO.P,68,1*%
%TO.N,3V3*%
X158597600Y-64211200D03*
D10*
%TO.P,68,2*%
X173837600Y-64211200D03*
%TD*%
%TO.P,68,1*%
%TO.N,CLK*%
X141325600Y-67614800D03*
%TO.P,68,2*%
X156565600Y-67614800D03*
%TD*%
%TO.P,1k,1*%
%TO.N,Net-(Q2-B)*%
X141173200Y-93167200D03*
%TO.P,1k,2*%
%TO.N,Light Signal*%
X156413200Y-93167200D03*
%TD*%
%TO.P,1k,1*%
%TO.N,Net-(Q1-B)*%
X141198600Y-89357200D03*
%TO.P,1k,2*%
%TO.N,Buzzer Signal*%
X156438600Y-89357200D03*
%TD*%
D15*
%TO.P,BZ1,1,+*%
%TO.N,5V*%
X123000000Y-64000000D03*
D12*
%TO.P,BZ1,2,-*%
%TO.N,Net-(BZ1--)*%
X123000000Y-69000000D03*
%TD*%
D10*
%TO.P,U5,7*%
%TO.N,GND*%
X148818600Y-100304600D03*
%TO.P,U5,1,VIN+*%
%TO.N,5V*%
X148793600Y-111154600D03*
%TO.P,U5,2*%
%TO.N,N/C*%
X148793600Y-108554600D03*
%TO.P,U5,3,VOUT+*%
%TO.N,Net-(D2-K)*%
X129918600Y-111179600D03*
%TO.P,U5,4,VOUT-*%
%TO.N,N/C*%
X129918600Y-108654600D03*
%TO.P,U5,5*%
X129968600Y-97654600D03*
%TO.P,U5,6*%
X148793600Y-97629600D03*
%TO.P,U5,8*%
%TO.N,GND_IN*%
X129968600Y-100354600D03*
%TD*%
D11*
%TO.P,U2,1,VCC*%
%TO.N,3V3*%
X186676000Y-63243000D03*
%TO.P,U2,2,GND*%
%TO.N,GND*%
X186676000Y-65783000D03*
%TO.P,U2,3,SCL*%
%TO.N,SCL*%
X186676000Y-68323000D03*
%TO.P,U2,4,SDA*%
%TO.N,SDA*%
X186676000Y-70863000D03*
%TO.P,U2,5,XDA*%
%TO.N,unconnected-(U2-XDA-Pad5)*%
X186676000Y-73403000D03*
%TO.P,U2,6,XCL*%
%TO.N,unconnected-(U2-XCL-Pad6)*%
X186676000Y-75943000D03*
%TO.P,U2,7,ADD*%
%TO.N,unconnected-(U2-ADD-Pad7)*%
X186676000Y-78483000D03*
%TO.P,U2,8,INT*%
%TO.N,unconnected-(U2-INT-Pad8)*%
X186676000Y-81023000D03*
%TD*%
%TO.P,J1,1,Pin_1*%
%TO.N,VCC*%
X118000000Y-99920000D03*
%TO.P,J1,2,Pin_2*%
%TO.N,GND_IN*%
X118000000Y-105000000D03*
%TD*%
D13*
%TO.P,R2,1*%
%TO.N,Net-(D1-A)*%
X105920000Y-59000000D03*
%TO.P,R2,2*%
%TO.N,5V*%
X116080000Y-59000000D03*
%TD*%
D15*
%TO.P,D2,1,K*%
%TO.N,Net-(D2-K)*%
X124460000Y-109118400D03*
D11*
%TO.P,D2,2,A*%
%TO.N,VCC*%
X124460000Y-98958400D03*
%TD*%
D10*
%TO.P,U3,1,CE*%
%TO.N,CE*%
X135000000Y-71250000D03*
%TO.P,U3,2,CSN*%
%TO.N,CSN*%
X137250000Y-71250000D03*
%TO.P,U3,3,CLK*%
%TO.N,CLK*%
X139500000Y-71250000D03*
%TO.P,U3,4,MOSI*%
%TO.N,MOSI*%
X142000000Y-71250000D03*
%TO.P,U3,5,MISO*%
%TO.N,MISO*%
X144500000Y-71250000D03*
%TO.P,U3,6,IRC*%
%TO.N,unconnected-(U3-IRC-Pad6)*%
X147000000Y-71250000D03*
D11*
%TO.P,U3,7,VCC*%
%TO.N,5V*%
X148500000Y-83250000D03*
%TO.P,U3,8,GND*%
%TO.N,GND*%
X148500000Y-80750000D03*
%TD*%
%TO.P,U1,38,GND*%
%TO.N,GND*%
X179386000Y-65843200D03*
%TO.P,U1,37,G23*%
%TO.N,MOSI*%
X179386000Y-68383200D03*
%TO.P,U1,36,G22*%
%TO.N,SCL*%
X179386000Y-70821600D03*
%TO.P,U1,35,TXD*%
%TO.N,unconnected-(U1-TXD-Pad35)*%
X179386000Y-73361600D03*
%TO.P,U1,34,RXD*%
%TO.N,unconnected-(U1-RXD-Pad34)*%
X179386000Y-75901600D03*
%TO.P,U1,33,G21*%
%TO.N,SDA*%
X179386000Y-78441600D03*
%TO.P,U1,32,GND*%
%TO.N,unconnected-(U1-GND-Pad32)*%
X179386000Y-80981600D03*
%TO.P,U1,31,G19*%
%TO.N,MISO*%
X179386000Y-83521600D03*
%TO.P,U1,30,G18*%
%TO.N,CLK*%
X179386000Y-86061600D03*
%TO.P,U1,29,G5*%
%TO.N,Buzzer Signal*%
X179386000Y-88601600D03*
%TO.P,U1,28,G17*%
%TO.N,GPS TX*%
X179386000Y-91141600D03*
%TO.P,U1,27,G16*%
%TO.N,GPS RX*%
X179386000Y-93783200D03*
%TO.P,U1,26,G4*%
%TO.N,Light Signal*%
X179386000Y-96323200D03*
%TO.P,U1,25,G0*%
%TO.N,unconnected-(U1-G0-Pad25)*%
X179386000Y-98863200D03*
%TO.P,U1,24,G2*%
%TO.N,CE*%
X179386000Y-101403200D03*
%TO.P,U1,23,G15*%
%TO.N,CSN*%
X179386000Y-103943200D03*
%TO.P,U1,22,SD1*%
%TO.N,unconnected-(U1-SD1-Pad22)*%
X179386000Y-106483200D03*
%TO.P,U1,21,SD0*%
%TO.N,unconnected-(U1-SD0-Pad21)*%
X179386000Y-109023200D03*
%TO.P,U1,20,CLK*%
%TO.N,unconnected-(U1-CLK-Pad20)*%
X179386000Y-111563200D03*
%TO.P,U1,19,5V*%
%TO.N,5V*%
X153325600Y-111512400D03*
%TO.P,U1,18,CMD*%
%TO.N,unconnected-(U1-CMD-Pad18)*%
X153325600Y-108972400D03*
%TO.P,U1,17,SD3*%
%TO.N,unconnected-(U1-SD3-Pad17)*%
X153325600Y-106432400D03*
%TO.P,U1,16,SD2*%
%TO.N,unconnected-(U1-SD2-Pad16)*%
X153325600Y-103892400D03*
%TO.P,U1,15,G13*%
%TO.N,unconnected-(U1-G13-Pad15)*%
X153325600Y-101352400D03*
%TO.P,U1,14,GND*%
%TO.N,GND*%
X153325600Y-98812400D03*
%TO.P,U1,13,G12*%
%TO.N,unconnected-(U1-G12-Pad13)*%
X153325600Y-96272400D03*
%TO.P,U1,12,G14*%
%TO.N,unconnected-(U1-G14-Pad12)*%
X153325600Y-93732400D03*
%TO.P,U1,11,G27*%
%TO.N,unconnected-(U1-G27-Pad11)*%
X153325600Y-91090800D03*
%TO.P,U1,10,G26*%
%TO.N,unconnected-(U1-G26-Pad10)*%
X153325600Y-88550800D03*
%TO.P,U1,9,G25*%
%TO.N,unconnected-(U1-G25-Pad9)*%
X153325600Y-86010800D03*
%TO.P,U1,8,G33*%
%TO.N,unconnected-(U1-G33-Pad8)*%
X153325600Y-83470800D03*
%TO.P,U1,7,G32*%
%TO.N,unconnected-(U1-G32-Pad7)*%
X153325600Y-80930800D03*
%TO.P,U1,6,G35*%
%TO.N,unconnected-(U1-G35-Pad6)*%
X153325600Y-78390800D03*
%TO.P,U1,5,G34*%
%TO.N,unconnected-(U1-G34-Pad5)*%
X153325600Y-75850800D03*
%TO.P,U1,4,SN*%
%TO.N,unconnected-(U1-SN-Pad4)*%
X153325600Y-73310800D03*
%TO.P,U1,3,SP*%
%TO.N,unconnected-(U1-SP-Pad3)*%
X153325600Y-70770800D03*
%TO.P,U1,2,EN*%
%TO.N,unconnected-(U1-EN-Pad2)*%
X153325600Y-68332400D03*
%TO.P,U1,1,3V3*%
%TO.N,3V3*%
X153325600Y-65792400D03*
%TD*%
%TO.P,U4,1,VCC*%
%TO.N,5V*%
X189000000Y-107930000D03*
%TO.P,U4,2,RX*%
%TO.N,GPS RX*%
X189000000Y-105080000D03*
%TO.P,U4,3,TX*%
%TO.N,GPS TX*%
X189000000Y-102540000D03*
%TO.P,U4,4,GND*%
%TO.N,GND*%
X189000000Y-100000000D03*
%TO.P,U4,5*%
%TO.N,N/C*%
X189000000Y-97460000D03*
%TD*%
D16*
%TO.N,GND_IN*%
X130225800Y-102133400D02*
X130225800Y-100611800D01*
X127359200Y-105000000D02*
X130225800Y-102133400D01*
X130225800Y-100611800D02*
X129968600Y-100354600D01*
X118000000Y-105000000D02*
X127359200Y-105000000D01*
%TO.N,Net-(Q2-B)*%
X134112000Y-93167200D02*
X141173200Y-93167200D01*
X110007400Y-80797400D02*
X121742200Y-80797400D01*
X107238800Y-78028800D02*
X110007400Y-80797400D01*
X121742200Y-80797400D02*
X134112000Y-93167200D01*
X108839000Y-74320400D02*
X107238800Y-75920600D01*
X110134400Y-74320400D02*
X108839000Y-74320400D01*
X107238800Y-75920600D02*
X107238800Y-78028800D01*
%TO.N,GND*%
X149000000Y-100750000D02*
X150325000Y-100750000D01*
X148869400Y-100619400D02*
X149000000Y-100750000D01*
X150325000Y-100750000D02*
X152211800Y-98863200D01*
X150723600Y-91526400D02*
X148869400Y-93380600D01*
X150723600Y-81686400D02*
X150723600Y-91526400D01*
X148869400Y-93380600D02*
X148869400Y-100619400D01*
X149787200Y-80750000D02*
X150723600Y-81686400D01*
X148500000Y-80750000D02*
X149787200Y-80750000D01*
X125662200Y-80365600D02*
X124430800Y-79134200D01*
X133273800Y-80365600D02*
X125662200Y-80365600D01*
%TO.N,CSN*%
X177056800Y-103943200D02*
X179386000Y-103943200D01*
X165000000Y-116000000D02*
X177056800Y-103943200D01*
X138074400Y-74066400D02*
X143179800Y-74066400D01*
X144881600Y-75768200D02*
X144881600Y-110881600D01*
X137236200Y-73228200D02*
X138074400Y-74066400D01*
X137236200Y-71263800D02*
X137236200Y-73228200D01*
X150000000Y-116000000D02*
X165000000Y-116000000D01*
X143179800Y-74066400D02*
X144881600Y-75768200D01*
X137250000Y-71250000D02*
X137236200Y-71263800D01*
X144881600Y-110881600D02*
X150000000Y-116000000D01*
%TO.N,CE*%
X181656000Y-101403200D02*
X179386000Y-101403200D01*
X143383000Y-112633000D02*
X149000000Y-118250000D01*
X143383000Y-77038200D02*
X143383000Y-112633000D01*
X137464800Y-75488800D02*
X141833600Y-75488800D01*
X182750000Y-102497200D02*
X181656000Y-101403200D01*
X177500000Y-118250000D02*
X182750000Y-113000000D01*
X135000000Y-73024000D02*
X137464800Y-75488800D01*
X141833600Y-75488800D02*
X143383000Y-77038200D01*
X135000000Y-71250000D02*
X135000000Y-73024000D01*
X182750000Y-113000000D02*
X182750000Y-102497200D01*
X149000000Y-118250000D02*
X177500000Y-118250000D01*
%TO.N,Net-(Q1-B)*%
X138008200Y-76794200D02*
X141198600Y-79984600D01*
X141198600Y-79984600D02*
X141198600Y-89357200D01*
X124440800Y-76794200D02*
X138008200Y-76794200D01*
%TO.N,GND*%
X119789600Y-76660400D02*
X122263400Y-79134200D01*
X110124400Y-76660400D02*
X119789600Y-76660400D01*
X122263400Y-79134200D02*
X124430800Y-79134200D01*
%TO.N,Net-(BZ1--)*%
X124410800Y-70410800D02*
X123000000Y-69000000D01*
X124410800Y-74414200D02*
X124410800Y-70410800D01*
%TO.N,Net-(D1-K)*%
X110000000Y-71836000D02*
X110104400Y-71940400D01*
X110000000Y-66000000D02*
X110000000Y-71836000D01*
%TO.N,3V3*%
X185942400Y-62509400D02*
X186676000Y-63243000D01*
X175539400Y-62509400D02*
X185942400Y-62509400D01*
X173837600Y-64211200D02*
X175539400Y-62509400D01*
%TO.N,MOSI*%
X166206000Y-60706000D02*
X173883200Y-68383200D01*
X142000000Y-70191600D02*
X151485600Y-60706000D01*
X142000000Y-71250000D02*
X142000000Y-70191600D01*
X151485600Y-60706000D02*
X166206000Y-60706000D01*
X173883200Y-68383200D02*
X179386000Y-68383200D01*
%TO.N,5V*%
X195884800Y-65151000D02*
X195884800Y-104063800D01*
X192018600Y-107930000D02*
X189000000Y-107930000D01*
X189687200Y-58953400D02*
X195884800Y-65151000D01*
X151079200Y-58953400D02*
X189687200Y-58953400D01*
X195884800Y-104063800D02*
X192018600Y-107930000D01*
X146032600Y-64000000D02*
X151079200Y-58953400D01*
X123000000Y-64000000D02*
X146032600Y-64000000D01*
%TO.N,3V3*%
X158597600Y-64211200D02*
X154906800Y-64211200D01*
X154906800Y-64211200D02*
X153325600Y-65792400D01*
%TO.N,CLK*%
X156565600Y-67614800D02*
X156565600Y-68757800D01*
X156565600Y-68757800D02*
X173869400Y-86061600D01*
X139500000Y-69440400D02*
X141325600Y-67614800D01*
X139500000Y-71250000D02*
X139500000Y-69440400D01*
%TO.N,MISO*%
X152019000Y-62280800D02*
X144500000Y-69799800D01*
X144500000Y-69799800D02*
X144500000Y-71250000D01*
X164592000Y-62280800D02*
X152019000Y-62280800D01*
X175971200Y-73660000D02*
X164592000Y-62280800D01*
X175971200Y-81584800D02*
X175971200Y-73660000D01*
X177908000Y-83521600D02*
X175971200Y-81584800D01*
X179386000Y-83521600D02*
X177908000Y-83521600D01*
%TO.N,CLK*%
X173869400Y-86061600D02*
X179386000Y-86061600D01*
%TO.N,Light Signal*%
X159569200Y-96323200D02*
X156413200Y-93167200D01*
X179386000Y-96323200D02*
X159569200Y-96323200D01*
%TO.N,Buzzer Signal*%
X157194200Y-88601600D02*
X156438600Y-89357200D01*
X179386000Y-88601600D02*
X157194200Y-88601600D01*
%TO.N,5V*%
X153238000Y-111600000D02*
X153325600Y-111512400D01*
X146710400Y-109710400D02*
X148600000Y-111600000D01*
X146710400Y-85039600D02*
X146710400Y-109710400D01*
X148600000Y-111600000D02*
X153238000Y-111600000D01*
X148500000Y-83250000D02*
X146710400Y-85039600D01*
X118000000Y-59000000D02*
X123000000Y-64000000D01*
X116080000Y-59000000D02*
X118000000Y-59000000D01*
%TO.N,Net-(D1-A)*%
X107564800Y-59000000D02*
X112540000Y-63975200D01*
X105920000Y-59000000D02*
X107564800Y-59000000D01*
X112540000Y-63975200D02*
X112540000Y-66000000D01*
%TO.N,Net-(D2-K)*%
X129918600Y-111179600D02*
X126521200Y-111179600D01*
X126521200Y-111179600D02*
X124460000Y-109118400D01*
%TO.N,VCC*%
X123498400Y-99920000D02*
X124460000Y-98958400D01*
X118000000Y-99920000D02*
X123498400Y-99920000D01*
%TO.N,GND*%
X186676000Y-65783000D02*
X179446200Y-65783000D01*
X193370200Y-97559800D02*
X193370200Y-66548000D01*
X192605200Y-65783000D02*
X186676000Y-65783000D01*
X193370200Y-66548000D02*
X192605200Y-65783000D01*
X179446200Y-65783000D02*
X179386000Y-65843200D01*
%TO.N,SCL*%
X182289400Y-70821600D02*
X179386000Y-70821600D01*
X186676000Y-68323000D02*
X184788000Y-68323000D01*
X184788000Y-68323000D02*
X182289400Y-70821600D01*
%TO.N,SDA*%
X182295800Y-77190600D02*
X181044800Y-78441600D01*
X181044800Y-78441600D02*
X179386000Y-78441600D01*
X182295800Y-72973200D02*
X182295800Y-77190600D01*
X184406000Y-70863000D02*
X182295800Y-72973200D01*
X186676000Y-70863000D02*
X184406000Y-70863000D01*
%TO.N,GPS RX*%
X181991000Y-94488000D02*
X181286200Y-93783200D01*
X181991000Y-99466400D02*
X181991000Y-94488000D01*
X181286200Y-93783200D02*
X179386000Y-93783200D01*
%TO.N,GPS TX*%
X183921400Y-92456000D02*
X182607000Y-91141600D01*
X182607000Y-91141600D02*
X179386000Y-91141600D01*
X183921400Y-99391400D02*
X183921400Y-92456000D01*
%TO.N,GND*%
X190930000Y-100000000D02*
X193370200Y-97559800D01*
X189000000Y-100000000D02*
X190930000Y-100000000D01*
%TO.N,GPS RX*%
X187604600Y-105080000D02*
X181991000Y-99466400D01*
X189000000Y-105080000D02*
X187604600Y-105080000D01*
%TO.N,GPS TX*%
X187070000Y-102540000D02*
X183921400Y-99391400D01*
X189000000Y-102540000D02*
X187070000Y-102540000D01*
%TD*%
M02*
