M48
; DRILL file {KiCad 9.0.0} date 2025-10-02T15:13:36+0800
; FORMAT={-:-/ absolute / metric / decimal}
; #@! TF.CreationDate,2025-10-02T15:13:36+08:00
; #@! TF.GenerationSoftware,Kicad,Pcbnew,9.0.0
; #@! TF.FileFunction,Plated,1,2,PTH
FMAT,2
METRIC
; #@! TA.AperFunction,Plated,PTH,ComponentDrill
T1C0.800
; #@! TA.AperFunction,Plated,PTH,ComponentDrill
T2C0.900
; #@! TA.AperFunction,Plated,PTH,ComponentDrill
T3C1.000
%
G90
G05
T1
X105.92Y-59.0
X110.104Y-71.94
X110.124Y-76.66
X110.134Y-74.32
X112.54Y-66.0
X116.08Y-59.0
X118.0Y-99.92
X118.0Y-105.0
X123.0Y-69.0
X124.411Y-74.414
X124.431Y-79.134
X124.441Y-76.794
X124.46Y-98.958
X129.919Y-108.655
X129.919Y-111.18
X129.969Y-97.655
X129.969Y-100.355
X133.274Y-80.366
X135.0Y-71.25
X137.25Y-71.25
X139.5Y-71.25
X141.173Y-93.167
X141.199Y-89.357
X141.326Y-67.615
X142.0Y-71.25
X144.5Y-71.25
X147.0Y-71.25
X148.5Y-80.75
X148.5Y-83.25
X148.514Y-80.366
X148.794Y-97.63
X148.794Y-108.555
X148.794Y-111.155
X148.819Y-100.305
X153.326Y-65.792
X153.326Y-68.332
X153.326Y-70.771
X153.326Y-73.311
X153.326Y-75.851
X153.326Y-78.391
X153.326Y-80.931
X153.326Y-83.471
X153.326Y-86.011
X153.326Y-88.551
X153.326Y-91.091
X153.326Y-93.732
X153.326Y-96.272
X153.326Y-98.812
X153.326Y-101.352
X153.326Y-103.892
X153.326Y-106.432
X153.326Y-108.972
X153.326Y-111.512
X156.413Y-93.167
X156.439Y-89.357
X156.566Y-67.615
X158.598Y-64.211
X173.838Y-64.211
X179.386Y-65.843
X179.386Y-68.383
X179.386Y-70.822
X179.386Y-73.362
X179.386Y-75.902
X179.386Y-78.442
X179.386Y-80.982
X179.386Y-83.522
X179.386Y-86.062
X179.386Y-88.602
X179.386Y-91.142
X179.386Y-93.783
X179.386Y-96.323
X179.386Y-98.863
X179.386Y-101.403
X179.386Y-103.943
X179.386Y-106.483
X179.386Y-109.023
X179.386Y-111.563
X186.676Y-63.243
X186.676Y-65.783
X186.676Y-68.323
X186.676Y-70.863
X186.676Y-73.403
X186.676Y-75.943
X186.676Y-78.483
X186.676Y-81.023
X189.0Y-97.46
X189.0Y-100.0
X189.0Y-102.54
X189.0Y-105.08
X189.0Y-107.93
T2
X110.0Y-66.0
X124.46Y-109.118
T3
X123.0Y-64.0
M30
